<?xml version="1.0" encoding="utf-8"?>
<!-- Generator: Adobe Illustrator 21.0.0, SVG Export Plug-In . SVG Version: 6.00 Build 0)  -->
<svg version="1.1" id="pure-hair_x5F_main" xmlns="http://www.w3.org/2000/svg" xmlns:xlink="http://www.w3.org/1999/xlink" x="0px"
	 y="0px" viewBox="0 0 488.6 303" style="enable-background:new 0 0 488.6 303;" xml:space="preserve">
<metadata><?xpacket begin="﻿" id="W5M0MpCehiHzreSzNTczkc9d"?>
<x:xmpmeta xmlns:x="adobe:ns:meta/" x:xmptk="Adobe XMP Core 5.6-c137 79.159768, 2016/08/11-13:24:42        ">
   <rdf:RDF xmlns:rdf="http://www.w3.org/1999/02/22-rdf-syntax-ns#">
      <rdf:Description rdf:about=""/>
   </rdf:RDF>
</x:xmpmeta>
                                                                                                    
                                                                                                    
                                                                                                    
                                                                                                    
                                                                                                    
                                                                                                    
                                                                                                    
                                                                                                    
                                                                                                    
                                                                                                    
                                                                                                    
                                                                                                    
                                                                                                    
                                                                                                    
                                                                                                    
                                                                                                    
                                                                                                    
                                                                                                    
                                                                                                    
                                                                                                    
                           
<?xpacket end="w"?></metadata>
<style type="text/css">
	.st0{fill:#252F5B;}
	.st1{fill:#878787;}
</style>
<g>
	<g>
		<path class="st0" d="M63,190.7c0,3-0.6,5.8-1.9,8.3c-1.3,2.5-3,4.5-5.2,6c-2.2,1.5-4.5,2.2-7.1,2.2H39v23.2c0,2.6,1.8,3.8,5.5,3.8
			v0.9H22.7v-0.9c3.6,0,5.4-1.3,5.4-3.8v-51.6c0-2.6-1.8-3.9-5.4-3.9v-0.9h26.2c2.6,0,4.9,0.7,7.1,2.2c2.2,1.5,3.9,3.5,5.2,6.1
			C62.4,184.9,63,187.7,63,190.7z M52.1,190.7c0-2.6-0.5-4.9-1.6-7.2c-1.1-2.2-2.5-4-4.4-5.3c-1.8-1.3-3.8-2-6-2H39v28.8h1.1
			c2.2,0,4.1-0.6,6-1.9c1.8-1.3,3.3-3,4.4-5.2C51.5,195.7,52.1,193.3,52.1,190.7z"/>
		<path class="st0" d="M74.2,217.7v-38.9c0-1.3-0.5-2.3-1.4-2.9c-1-0.7-2.3-1-4.1-1V174h21.8v0.9c-3.6,0-5.4,1.3-5.4,3.9v38.9
			c0,3.3,0.6,6,1.9,8.1c1.3,2.2,2.8,3.7,4.8,4.8c1.9,1,3.9,1.5,5.9,1.5c2.3,0,4.5-0.5,6.8-1.6c2.2-1,4.1-2.7,5.5-4.8
			c1.5-2.2,2.2-4.8,2.2-8v-38.9c0-2.6-1.8-3.9-5.4-3.9V174h14.4v0.9c-1.7,0-3.1,0.3-4.1,1c-1,0.7-1.4,1.6-1.4,2.9v38.9
			c0,3.4-0.8,6.5-2.4,9.1c-1.6,2.6-3.8,4.7-6.5,6.1c-2.7,1.4-5.8,2.1-9.2,2.1c-3.6,0-7.2-0.6-10.8-1.9c-3.6-1.3-6.6-3.2-9-5.8
			C75.4,224.9,74.2,221.7,74.2,217.7z"/>
		<path class="st0" d="M179.2,234.2v1.1c-1.4,0.2-2.8,0.3-4.3,0.3c-4,0-7.2-0.8-9.8-2.5c-2.6-1.7-4.6-3.6-5.9-5.9
			c-1.4-2.3-2.7-5.1-4-8.3c-1.6-4-3.5-6.9-5.7-8.8c-2.2-1.9-4.3-2.8-6.2-2.8v23.2c0,1.3,0.5,2.2,1.4,2.9c0.9,0.6,2.3,1,4,1v0.9
			h-21.8v-0.9c1.7,0,3.1-0.3,4.1-1c1-0.6,1.4-1.6,1.4-2.9v-51.6c0-1.3-0.5-2.3-1.4-2.9c-1-0.7-2.3-1-4.1-1v-0.9h26.3
			c2.6,0,4.9,0.7,7.1,2.2c2.2,1.5,3.9,3.5,5.2,6.1c1.3,2.6,1.9,5.3,1.9,8.3c0,2.7-0.5,5.3-1.6,7.6s-2.5,4.3-4.3,5.9
			c-1.8,1.5-3.9,2.5-6.2,2.9c5.2,2.1,9,6.1,11.3,12.1c2,5,3.9,8.8,5.9,11.3C174.4,232.9,176.6,234.2,179.2,234.2z M156.4,190.7
			c0-2.6-0.5-4.9-1.6-7.2c-1.1-2.2-2.5-4-4.4-5.3c-1.8-1.3-3.8-2-6-2h-1.1v28.8h1.1c2.2,0,4.1-0.6,6-1.9c1.8-1.3,3.3-3,4.4-5.2
			C155.9,195.7,156.4,193.3,156.4,190.7z"/>
		<path class="st0" d="M224.6,235.1h-39.7v-0.9c1.7,0,3.1-0.3,4.1-1c1-0.6,1.4-1.6,1.4-2.9v-51.6c0-1.3-0.5-2.3-1.4-2.9
			c-1-0.7-2.3-1-4.1-1V174h33.2c1.3,0,2.5-0.1,3.7-0.3c1.2-0.2,2.1-0.6,2.7-1h0.2v11.4h-1c-1-2.4-2.6-4.3-4.7-5.8
			c-2.1-1.5-4.6-2.2-7.7-2.2h-10v26.6h11c1.9,0,3.3-0.1,4.1-0.3c0.8-0.2,1.5-0.7,1.8-1.4c0.4-0.8,0.6-2,0.6-3.7h0.9v14.4h-0.9
			c0-1.7-0.2-2.9-0.6-3.7c-0.4-0.8-1-1.3-1.9-1.5c-0.9-0.2-2.2-0.3-4.1-0.3h-11v26.6h10c3.1,0,5.7-0.4,7.8-1.2
			c2-0.8,3.7-1.8,4.9-3.1c1.2-1.3,2.5-2.9,3.8-4.9h0.9L224.6,235.1z"/>
	</g>
	<g>
		<path class="st0" d="M318.3,234.3v0.9h-21.8v-0.9c1.7,0,3.1-0.3,4.1-1c1-0.6,1.4-1.6,1.4-2.9v-24.7h-26.1v24.8
			c0,1.3,0.5,2.2,1.4,2.9c0.9,0.6,2.3,1,4,1v0.9h-21.8v-0.9c1.7,0,3.1-0.3,4.1-1c1-0.6,1.4-1.6,1.4-2.9v-51.6c0-1.3-0.5-2.3-1.4-2.9
			c-1-0.7-2.3-1-4.1-1v-0.9h21.8v0.9c-1.7,0-3.1,0.3-4,1c-0.9,0.7-1.4,1.6-1.4,2.9v24.6H302v-24.7c0-1.3-0.5-2.3-1.4-2.9
			c-1-0.7-2.3-1-4.1-1V174h21.8v0.9c-1.7,0-3.1,0.3-4,1c-0.9,0.7-1.4,1.6-1.4,2.9v51.6c0,1.3,0.5,2.2,1.4,2.9
			C315.3,233.9,316.6,234.3,318.3,234.3z"/>
		<path class="st0" d="M378.7,234.3v0.9h-21.8v-0.9c1.6,0,2.9-0.3,4-0.8c1.1-0.5,1.6-1.3,1.6-2.2c0-0.2-0.1-0.5-0.2-0.9l-5.3-15.4
			h-17.6l-5.3,15.4c-0.1,0.3-0.2,0.6-0.2,0.9c0,0.9,0.5,1.7,1.6,2.2c1.1,0.5,2.4,0.8,4.1,0.8v0.9h-14.8v-0.9c3.4,0,5.6-1.3,6.5-3.8
			l19.6-56.4h2.7l19.6,56.4c0.5,1.3,1.1,2.3,1.9,2.9S377.1,234.3,378.7,234.3z M348.2,189.8l-7.9,23.1h16L348.2,189.8z"/>
		<path class="st0" d="M390.8,230.5v-51.6c0-1.3-0.5-2.3-1.4-2.9c-1-0.7-2.3-1-4.1-1v-0.9h21.8v0.9c-3.6,0-5.4,1.3-5.4,3.9v51.6
			c0,1.3,0.5,2.2,1.4,2.9c0.9,0.6,2.3,1,4,1v0.9h-21.8v-0.9c1.7,0,3.1-0.3,4.1-1C390.3,232.7,390.8,231.8,390.8,230.5z"/>
		<path class="st0" d="M465.9,234.2v1.1c-1.4,0.2-2.8,0.3-4.3,0.3c-4,0-7.2-0.8-9.8-2.5c-2.6-1.7-4.6-3.6-5.9-5.9
			c-1.4-2.3-2.7-5.1-4-8.3c-1.6-4-3.5-6.9-5.7-8.8c-2.2-1.9-4.3-2.8-6.2-2.8v23.2c0,1.3,0.5,2.2,1.4,2.9c0.9,0.6,2.3,1,4,1v0.9
			h-21.8v-0.9c1.7,0,3.1-0.3,4.1-1c1-0.6,1.4-1.6,1.4-2.9v-51.6c0-1.3-0.5-2.3-1.4-2.9c-1-0.7-2.3-1-4.1-1v-0.9h26.3
			c2.6,0,4.9,0.7,7.1,2.2c2.2,1.5,3.9,3.5,5.2,6.1c1.3,2.6,1.9,5.3,1.9,8.3c0,2.7-0.5,5.3-1.6,7.6s-2.5,4.3-4.3,5.9
			c-1.8,1.5-3.9,2.5-6.2,2.9c5.2,2.1,9,6.1,11.3,12.1c2,5,3.9,8.8,5.9,11.3C461.1,232.9,463.4,234.2,465.9,234.2z M443.2,190.7
			c0-2.6-0.5-4.9-1.6-7.2c-1.1-2.2-2.5-4-4.4-5.3s-3.8-2-6-2h-1.1v28.8h1.1c2.2,0,4.1-0.6,6-1.9c1.8-1.3,3.3-3,4.4-5.2
			C442.6,195.7,443.2,193.3,443.2,190.7z"/>
	</g>
	<path class="st0" d="M208.6,148.4c0-38.9,0-77.9,0-117.2c0-3.4,2-4.5,4.6-4.5H242c20.4,0,33.8,12.4,37.1,30.2
		c2.8,15-0.9,28.3-12.5,38.8c-6.7,6-14.8,8.4-24.3,7.7c0.7-2.4,1.2-4.7,2.1-6.8c1.3-2.9,3.9-3.8,7-3.9c3.2-0.1,6.5,0,9.7-0.4
		c3.8-0.5,5-2.3,4.1-6c-0.4-1.6-0.4-3.1,0.6-4.5c1.2-1.7,0.2-2.8-1.3-3.6c1.5-2.7,1.5-2.6-0.9-4.8c-1-1-1.3-2.1-0.3-3.2
		c0.7-0.8,1.4-1.5,2.2-2.2c1.7-1.5,1.7-2,0.1-3.7c-1.7-1.6-3.4-3.2-5.2-4.7c-0.3-0.3-0.6-0.7-1.3-1.4c0.8-0.5,1.5-1.1,2.3-1.6
		c-3.1,0.8-3.3,0.8-4-2.3c-0.6-2.8-0.8-5.7-1.4-8.5c-0.4-2-0.9-4-1.9-5.8c-0.6-1.2-2.1-1.9-3.3-2.9c-0.8,6.3-1.4,11.9-2.1,17.4
		c-1.1,8.6-8.8,24.7-10.1,25.9c-10.8,10.3-12.9,25.8-12.8,36.7s10.2,31.3,10.2,31.3H208.6z"/>
	<g>
		<path class="st1" d="M95.4,267.7c0.4,0.8,0.9,1.4,1.5,1.8c0.7,0.5,1.4,0.8,2.3,1c0.9,0.2,1.8,0.3,2.9,0.3c0.6,0,1.2-0.1,1.9-0.2
			c0.7-0.2,1.3-0.4,1.9-0.8c0.6-0.4,1.1-0.8,1.5-1.4s0.6-1.3,0.6-2.1c0-0.6-0.1-1.2-0.4-1.6c-0.3-0.5-0.6-0.8-1.1-1.1
			c-0.4-0.3-0.9-0.6-1.5-0.8c-0.5-0.2-1.1-0.4-1.6-0.5l-4.9-1.2c-0.6-0.2-1.3-0.4-1.9-0.6c-0.6-0.2-1.1-0.6-1.6-1
			c-0.5-0.4-0.8-0.9-1.1-1.5c-0.3-0.6-0.4-1.3-0.4-2.2c0-0.5,0.1-1.2,0.3-1.9c0.2-0.7,0.6-1.4,1.2-2s1.3-1.2,2.3-1.6
			c1-0.4,2.3-0.7,3.8-0.7c1.1,0,2.1,0.1,3.1,0.4c1,0.3,1.9,0.7,2.6,1.3c0.7,0.6,1.3,1.3,1.8,2.2c0.4,0.9,0.7,1.9,0.7,3h-2.1
			c0-0.8-0.2-1.6-0.6-2.2c-0.3-0.6-0.8-1.2-1.3-1.6c-0.5-0.4-1.2-0.7-1.9-1s-1.5-0.3-2.2-0.3c-0.7,0-1.4,0.1-2.1,0.2
			c-0.7,0.2-1.3,0.4-1.8,0.7c-0.5,0.3-0.9,0.8-1.2,1.3c-0.3,0.6-0.5,1.2-0.5,2.1c0,0.5,0.1,1,0.3,1.3c0.2,0.4,0.4,0.7,0.7,1
			c0.3,0.3,0.7,0.5,1.1,0.7s0.8,0.3,1.3,0.4l5.4,1.3c0.8,0.2,1.5,0.5,2.2,0.8c0.7,0.3,1.3,0.7,1.8,1.1c0.5,0.4,0.9,1,1.2,1.6
			c0.3,0.6,0.4,1.4,0.4,2.3c0,0.2,0,0.6-0.1,1c-0.1,0.4-0.2,0.9-0.4,1.3s-0.5,0.9-0.8,1.4c-0.4,0.5-0.9,0.9-1.5,1.3
			c-0.6,0.4-1.4,0.7-2.3,0.9c-0.9,0.2-2,0.4-3.3,0.4c-1.3,0-2.5-0.1-3.6-0.4c-1.1-0.3-2.1-0.8-2.9-1.4c-0.8-0.6-1.4-1.4-1.8-2.4
			c-0.4-1-0.6-2.1-0.5-3.5h2.1C94.9,265.9,95,266.9,95.4,267.7z"/>
		<path class="st1" d="M118.7,250v8.9h0.1c0.4-1,1-1.8,2-2.3c1-0.6,2-0.9,3.1-0.9c1.1,0,2.1,0.1,2.8,0.4c0.8,0.3,1.4,0.7,1.8,1.2
			c0.5,0.5,0.8,1.2,1,1.9c0.2,0.8,0.3,1.6,0.3,2.6v10.3h-2v-10c0-0.7-0.1-1.3-0.2-1.9s-0.3-1.1-0.7-1.5c-0.3-0.4-0.7-0.8-1.3-1
			s-1.2-0.4-2-0.4c-0.8,0-1.5,0.1-2.1,0.4c-0.6,0.3-1.1,0.7-1.5,1.1c-0.4,0.5-0.8,1.1-1,1.7c-0.2,0.7-0.4,1.4-0.4,2.2v9.3h-2V250
			H118.7z"/>
		<path class="st1" d="M138.6,266.8c0.2,0.8,0.5,1.4,0.9,2s1,1.1,1.6,1.5c0.7,0.4,1.5,0.6,2.4,0.6c1.4,0,2.5-0.4,3.3-1.1
			s1.4-1.7,1.7-3h2c-0.4,1.8-1.2,3.2-2.3,4.2c-1.1,1-2.7,1.5-4.7,1.5c-1.3,0-2.4-0.2-3.3-0.7s-1.7-1.1-2.2-1.8s-1-1.7-1.3-2.7
			c-0.3-1-0.4-2.1-0.4-3.2c0-1.1,0.1-2.1,0.4-3.1c0.3-1,0.7-1.9,1.3-2.7c0.6-0.8,1.3-1.4,2.2-1.9s2-0.7,3.3-0.7
			c1.3,0,2.4,0.3,3.3,0.8c0.9,0.5,1.6,1.2,2.2,2s1,1.8,1.2,2.9s0.4,2.2,0.3,3.3h-12.3C138.3,265.3,138.4,266,138.6,266.8z
			 M148.3,260.8c-0.2-0.7-0.6-1.3-1-1.8c-0.4-0.5-1-1-1.6-1.3c-0.6-0.3-1.3-0.5-2.1-0.5c-0.8,0-1.5,0.2-2.1,0.5
			c-0.6,0.3-1.1,0.7-1.6,1.3s-0.8,1.1-1,1.8c-0.3,0.7-0.4,1.4-0.5,2.1h10.4C148.6,262.2,148.5,261.5,148.3,260.8z"/>
		<path class="st1" d="M158.7,256.1v3.8h0.1c0.5-1.3,1.3-2.3,2.3-3c1-0.7,2.3-1,3.7-1v2c-0.9,0-1.7,0.1-2.4,0.4
			c-0.7,0.3-1.3,0.7-1.9,1.2c-0.5,0.5-0.9,1.1-1.2,1.8c-0.3,0.7-0.4,1.5-0.4,2.3v8.5h-2v-16H158.7z"/>
		<path class="st1" d="M172.4,250v9.2h0.1c0.2-0.6,0.5-1.1,0.9-1.5c0.4-0.4,0.8-0.8,1.3-1.1c0.5-0.3,1-0.5,1.6-0.7
			c0.6-0.1,1.2-0.2,1.7-0.2c1.2,0,2.3,0.2,3.2,0.7c0.9,0.5,1.6,1.1,2.2,1.8c0.6,0.8,1,1.7,1.3,2.7c0.3,1,0.4,2.1,0.4,3.2
			s-0.1,2.2-0.4,3.2c-0.3,1-0.7,1.9-1.3,2.7c-0.6,0.8-1.3,1.4-2.2,1.8s-2,0.7-3.2,0.7c-1.3,0-2.5-0.3-3.5-0.9
			c-1-0.6-1.8-1.5-2.2-2.6h-0.1v3h-1.8V250H172.4z M182.9,261.6c-0.2-0.8-0.5-1.5-0.9-2.2c-0.4-0.6-1-1.2-1.6-1.6
			c-0.7-0.4-1.5-0.6-2.4-0.6c-1,0-1.9,0.2-2.6,0.6c-0.7,0.4-1.3,0.9-1.7,1.6c-0.4,0.6-0.8,1.4-1,2.2c-0.2,0.8-0.3,1.6-0.3,2.5
			c0,0.8,0.1,1.6,0.3,2.5c0.2,0.8,0.5,1.5,1,2.2s1,1.2,1.7,1.6c0.7,0.4,1.6,0.6,2.6,0.6c0.9,0,1.7-0.2,2.4-0.6
			c0.7-0.4,1.2-0.9,1.6-1.6c0.4-0.6,0.7-1.4,0.9-2.2c0.2-0.8,0.3-1.6,0.3-2.5C183.2,263.3,183.1,262.4,182.9,261.6z"/>
		<path class="st1" d="M201.9,256.3c0.9,0.5,1.7,1.1,2.4,1.8c0.6,0.8,1.1,1.7,1.5,2.7c0.3,1,0.5,2.1,0.5,3.3s-0.2,2.2-0.5,3.3
			c-0.3,1-0.8,1.9-1.5,2.7c-0.6,0.8-1.4,1.4-2.4,1.8s-2,0.7-3.2,0.7c-1.2,0-2.3-0.2-3.2-0.7s-1.7-1-2.4-1.8s-1.1-1.7-1.5-2.7
			s-0.5-2.1-0.5-3.3s0.2-2.2,0.5-3.3c0.3-1,0.8-1.9,1.5-2.7c0.6-0.8,1.4-1.4,2.4-1.8c0.9-0.5,2-0.7,3.2-0.7
			C199.9,255.6,201,255.9,201.9,256.3z M196.3,257.9c-0.7,0.4-1.3,0.9-1.8,1.5s-0.8,1.4-1.1,2.2s-0.4,1.6-0.4,2.5
			c0,0.8,0.1,1.7,0.4,2.5c0.2,0.8,0.6,1.5,1.1,2.2c0.5,0.6,1,1.2,1.8,1.6s1.5,0.6,2.4,0.6c0.9,0,1.7-0.2,2.4-0.6s1.3-0.9,1.8-1.6
			c0.5-0.6,0.8-1.4,1.1-2.2c0.2-0.8,0.4-1.6,0.4-2.5c0-0.8-0.1-1.7-0.4-2.5c-0.2-0.8-0.6-1.5-1.1-2.2c-0.5-0.6-1-1.2-1.8-1.5
			s-1.5-0.6-2.4-0.6C197.8,257.3,197,257.5,196.3,257.9z"/>
		<path class="st1" d="M214.7,256.1v3.8h0.1c0.5-1.3,1.3-2.3,2.3-3c1-0.7,2.3-1,3.7-1v2c-0.9,0-1.7,0.1-2.4,0.4
			c-0.7,0.3-1.3,0.7-1.9,1.2c-0.5,0.5-0.9,1.1-1.2,1.8c-0.3,0.7-0.4,1.5-0.4,2.3v8.5h-2v-16H214.7z"/>
		<path class="st1" d="M228.9,256.1v2.8h0.1c0.4-1,1-1.8,2-2.3c1-0.6,2-0.9,3.1-0.9c1.1,0,2.1,0.1,2.8,0.4c0.8,0.3,1.4,0.7,1.8,1.2
			c0.5,0.5,0.8,1.2,1,1.9c0.2,0.8,0.3,1.6,0.3,2.6v10.3h-2v-10c0-0.7-0.1-1.3-0.2-1.9s-0.3-1.1-0.7-1.5c-0.3-0.4-0.7-0.8-1.3-1
			s-1.2-0.4-2-0.4c-0.8,0-1.5,0.1-2.1,0.4c-0.6,0.3-1.1,0.7-1.5,1.1c-0.4,0.5-0.8,1.1-1,1.7c-0.2,0.7-0.4,1.4-0.4,2.2v9.3h-2v-16
			H228.9z"/>
		<path class="st1" d="M248.8,266.8c0.2,0.8,0.5,1.4,0.9,2s1,1.1,1.6,1.5s1.5,0.6,2.4,0.6c1.4,0,2.5-0.4,3.3-1.1s1.4-1.7,1.7-3h2
			c-0.4,1.8-1.2,3.2-2.3,4.2c-1.1,1-2.7,1.5-4.7,1.5c-1.3,0-2.4-0.2-3.3-0.7c-0.9-0.4-1.7-1.1-2.2-1.8c-0.6-0.8-1-1.7-1.3-2.7
			c-0.3-1-0.4-2.1-0.4-3.2c0-1.1,0.1-2.1,0.4-3.1s0.7-1.9,1.3-2.7c0.6-0.8,1.3-1.4,2.2-1.9c0.9-0.5,2-0.7,3.3-0.7
			c1.3,0,2.4,0.3,3.3,0.8c0.9,0.5,1.6,1.2,2.2,2s1,1.8,1.2,2.9s0.4,2.2,0.3,3.3h-12.3C248.5,265.3,248.6,266,248.8,266.8z
			 M258.4,260.8c-0.2-0.7-0.6-1.3-1-1.8c-0.4-0.5-1-1-1.6-1.3c-0.6-0.3-1.3-0.5-2.1-0.5c-0.8,0-1.5,0.2-2.1,0.5
			c-0.6,0.3-1.1,0.7-1.6,1.3c-0.4,0.5-0.8,1.1-1,1.8c-0.3,0.7-0.4,1.4-0.5,2.1h10.4C258.8,262.2,258.7,261.5,258.4,260.8z"/>
		<path class="st1" d="M270.9,272.1c0,0.5-0.1,0.9-0.2,1.3s-0.3,0.9-0.5,1.2c-0.2,0.4-0.5,0.7-0.9,1c-0.3,0.3-0.7,0.5-1.2,0.6V275
			c0.2-0.1,0.5-0.2,0.7-0.5c0.2-0.2,0.3-0.5,0.5-0.8c0.1-0.3,0.2-0.6,0.3-0.9c0.1-0.3,0.1-0.6,0-0.8h-1.3v-3.3h2.6V272.1z"/>
		<path class="st1" d="M299.8,250c3.4,0.1,5.9,1,7.6,2.8c1.7,1.8,2.6,4.6,2.6,8.2c0,3.7-0.9,6.4-2.6,8.2c-1.7,1.8-4.2,2.8-7.6,2.8
			h-7.7V250H299.8z M298.8,270.3c1.6,0,3-0.2,4.1-0.5c1.1-0.3,2.1-0.9,2.8-1.6c0.7-0.7,1.3-1.7,1.6-2.9c0.4-1.2,0.5-2.6,0.5-4.2
			c0-1.7-0.2-3.1-0.5-4.2c-0.4-1.2-0.9-2.1-1.6-2.9s-1.7-1.3-2.8-1.6c-1.1-0.3-2.5-0.5-4.1-0.5h-4.5v18.5H298.8z"/>
		<path class="st1" d="M326.7,256.3c0.9,0.5,1.7,1.1,2.4,1.8c0.6,0.8,1.1,1.7,1.5,2.7c0.3,1,0.5,2.1,0.5,3.3s-0.2,2.2-0.5,3.3
			c-0.3,1-0.8,1.9-1.5,2.7s-1.4,1.4-2.4,1.8s-2,0.7-3.2,0.7c-1.2,0-2.3-0.2-3.2-0.7c-0.9-0.4-1.7-1-2.4-1.8s-1.1-1.7-1.5-2.7
			c-0.3-1-0.5-2.1-0.5-3.3s0.2-2.2,0.5-3.3c0.3-1,0.8-1.9,1.5-2.7c0.6-0.8,1.4-1.4,2.4-1.8c0.9-0.5,2-0.7,3.2-0.7
			C324.7,255.6,325.8,255.9,326.7,256.3z M321.1,257.9c-0.7,0.4-1.3,0.9-1.8,1.5c-0.5,0.6-0.8,1.4-1.1,2.2s-0.4,1.6-0.4,2.5
			c0,0.8,0.1,1.7,0.4,2.5c0.2,0.8,0.6,1.5,1.1,2.2c0.5,0.6,1,1.2,1.8,1.6c0.7,0.4,1.5,0.6,2.4,0.6s1.7-0.2,2.4-0.6
			c0.7-0.4,1.3-0.9,1.8-1.6c0.5-0.6,0.8-1.4,1.1-2.2c0.2-0.8,0.4-1.6,0.4-2.5c0-0.8-0.1-1.7-0.4-2.5s-0.6-1.5-1.1-2.2
			s-1-1.2-1.8-1.5c-0.7-0.4-1.5-0.6-2.4-0.6S321.8,257.5,321.1,257.9z"/>
		<path class="st1" d="M339.5,256.1v3.8h0.1c0.5-1.3,1.3-2.3,2.3-3c1-0.7,2.3-1,3.7-1v2c-0.9,0-1.7,0.1-2.4,0.4s-1.3,0.7-1.9,1.2
			c-0.5,0.5-0.9,1.1-1.2,1.8c-0.3,0.7-0.4,1.5-0.4,2.3v8.5h-2v-16H339.5z"/>
		<path class="st1" d="M360.4,259.2c-0.2-0.4-0.5-0.8-0.9-1.1c-0.4-0.3-0.8-0.5-1.3-0.6s-1-0.2-1.6-0.2c-0.4,0-0.9,0-1.3,0.1
			s-0.9,0.2-1.2,0.5c-0.4,0.2-0.7,0.5-0.9,0.9c-0.2,0.4-0.3,0.8-0.3,1.3c0,0.4,0.1,0.8,0.3,1.1c0.2,0.3,0.5,0.6,0.8,0.8
			c0.3,0.2,0.7,0.4,1.1,0.5c0.4,0.1,0.8,0.2,1.1,0.3l2.6,0.6c0.6,0.1,1.1,0.2,1.7,0.5c0.5,0.2,1,0.5,1.5,0.9c0.4,0.4,0.8,0.8,1,1.3
			s0.4,1.1,0.4,1.8c0,0.9-0.2,1.6-0.6,2.2c-0.4,0.6-0.9,1.1-1.5,1.5c-0.6,0.4-1.3,0.7-2.1,0.8c-0.8,0.2-1.5,0.2-2.3,0.2
			c-1.9,0-3.4-0.4-4.6-1.3c-1.2-0.9-1.8-2.3-2-4.3h2c0.1,1.3,0.6,2.3,1.4,3c0.9,0.7,2,1,3.3,1c0.5,0,1-0.1,1.5-0.2
			c0.5-0.1,1-0.3,1.4-0.5c0.4-0.2,0.8-0.6,1.1-0.9c0.3-0.4,0.4-0.9,0.4-1.4c0-0.5-0.1-0.9-0.3-1.2s-0.5-0.6-0.8-0.8
			c-0.3-0.2-0.7-0.4-1.1-0.5s-0.9-0.3-1.3-0.4l-2.5-0.6c-0.6-0.2-1.2-0.4-1.8-0.6s-1-0.5-1.4-0.8s-0.7-0.7-0.9-1.2
			c-0.2-0.5-0.3-1-0.3-1.7c0-0.8,0.2-1.5,0.5-2.1c0.4-0.6,0.8-1,1.4-1.4c0.6-0.4,1.2-0.6,1.9-0.8c0.7-0.2,1.4-0.2,2.1-0.2
			c0.8,0,1.6,0.1,2.2,0.3c0.7,0.2,1.3,0.5,1.8,1c0.5,0.4,0.9,1,1.3,1.6c0.3,0.6,0.5,1.4,0.5,2.3h-2
			C360.7,260.2,360.6,259.7,360.4,259.2z"/>
		<path class="st1" d="M371.3,266.8c0.2,0.8,0.5,1.4,0.9,2s1,1.1,1.6,1.5s1.5,0.6,2.4,0.6c1.4,0,2.5-0.4,3.3-1.1s1.4-1.7,1.7-3h2
			c-0.4,1.8-1.2,3.2-2.3,4.2c-1.1,1-2.7,1.5-4.7,1.5c-1.3,0-2.4-0.2-3.3-0.7c-0.9-0.4-1.7-1.1-2.2-1.8c-0.6-0.8-1-1.7-1.3-2.7
			c-0.3-1-0.4-2.1-0.4-3.2c0-1.1,0.1-2.1,0.4-3.1s0.7-1.9,1.3-2.7c0.6-0.8,1.3-1.4,2.2-1.9c0.9-0.5,2-0.7,3.3-0.7
			c1.3,0,2.4,0.3,3.3,0.8c0.9,0.5,1.6,1.2,2.2,2s1,1.8,1.2,2.9s0.4,2.2,0.3,3.3H371C371,265.3,371.1,266,371.3,266.8z M380.9,260.8
			c-0.2-0.7-0.6-1.3-1-1.8c-0.4-0.5-1-1-1.6-1.3c-0.6-0.3-1.3-0.5-2.1-0.5c-0.8,0-1.5,0.2-2.1,0.5c-0.6,0.3-1.1,0.7-1.6,1.3
			c-0.4,0.5-0.8,1.1-1,1.8c-0.3,0.7-0.4,1.4-0.5,2.1h10.4C381.3,262.2,381.2,261.5,380.9,260.8z"/>
		<path class="st1" d="M396,256.1v1.6h-3.3v10.8c0,0.6,0.1,1.1,0.3,1.5c0.2,0.4,0.6,0.6,1.3,0.6c0.6,0,1.1,0,1.7-0.1v1.6
			c-0.3,0-0.6,0-0.9,0s-0.6,0-0.9,0c-1.3,0-2.2-0.3-2.7-0.8c-0.5-0.5-0.8-1.4-0.7-2.8v-10.9H388v-1.6h2.8v-4.8h2v4.8H396z"/>
	</g>
</g>
</svg>
